<?xml version="1.0" encoding="UTF-8"?>
<svg width="512" height="512" viewBox="0 0 512 512" xmlns="http://www.w3.org/2000/svg">
  <rect width="512" height="512" rx="128" fill="#f4511e"/>
  <path
    fill="#ffffff"
    transform="scale(0.75) translate(85, 85)"
    d="M 465.300781 10.273438 C 461.300781 11.300781 452.898438 14.691406 446.601562 17.773438 L 435.101562 23.421875 L 434.800781 34.621094 L 434.5 45.714844 L 433.601562 36.160156 C 433.101562 30.921875 432.398438 26.402344 431.898438 26.09375 C 430.5 25.269531 411 39.035156 403.800781 46.125 C 400 49.71875 395.5 54.960938 393.699219 57.835938 C 390.898438 62.355469 390.5 62.664062 390.199219 60.507812 C 389.300781 52.597656 388.5 51.980469 383.5 55.882812 C 380.601562 58.246094 380.199219 59.070312 379.601562 65.953125 C 379.199219 70.0625 377.601562 78.277344 375.898438 84.238281 C 374.199219 90.195312 372.699219 95.539062 372.601562 96.257812 C 372.5 96.976562 372 97.902344 371.601562 98.3125 C 371.101562 98.722656 371 93.996094 371.300781 87.832031 C 372 75.199219 370.898438 60.816406 369.601562 64.207031 C 366 73.347656 363.398438 80.640625 361.800781 86.292969 C 360.699219 89.992188 358 98.3125 355.800781 104.785156 C 353.601562 111.253906 351.5 117.523438 351.199219 118.652344 C 350.898438 119.78125 350 121.628906 349.199219 122.761719 C 348 124.609375 347.898438 124.199219 348.5 118.753906 C 348.898438 115.363281 349.601562 111.460938 350.199219 110.023438 C 350.699219 108.585938 351.398438 96.875 351.699219 83.929688 C 352.300781 60.917969 351.699219 56.089844 349.300781 64.410156 C 348.699219 66.566406 347.101562 72.421875 345.699219 77.558594 C 344.300781 82.59375 342.199219 90.195312 341 94.304688 C 338.699219 102.832031 333 117.109375 332.101562 117.109375 C 331.800781 117.007812 329 113.308594 326 108.789062 C 319.398438 98.929688 306.199219 85.574219 296.5 78.894531 C 289.101562 73.863281 279.300781 68.929688 269.699219 65.335938 C 263.898438 63.179688 263.898438 63.179688 260.5 55.269531 C 253.101562 38.007812 241.699219 24.039062 229.5 17.257812 C 224.199219 14.277344 222.398438 13.867188 213.800781 13.558594 C 201.800781 13.046875 194.300781 15.304688 184.199219 22.601562 C 177.800781 27.222656 169.199219 37.597656 167.300781 42.835938 C 167 43.863281 166.199219 45.40625 165.5 46.226562 C 164.898438 47.050781 163.300781 50.335938 162.101562 53.417969 C 160.800781 56.398438 158.699219 60.710938 157.5 62.765625 C 155.101562 66.464844 155.101562 66.464844 146.800781 66.980469 C 137.699219 67.59375 125 70.78125 118.199219 74.273438 C 111.699219 77.664062 92.601562 96.050781 87.800781 103.550781 C 84.800781 108.277344 80.898438 121.9375 80.601562 128.410156 C 80.398438 135.5 79.699219 136.320312 73 137.144531 C 63.800781 138.273438 46 145.359375 46 147.929688 C 46 148.441406 43.800781 151.214844 41.199219 154.296875 C 36.898438 159.125 26 177.308594 26 179.570312 C 26 180.082031 25.199219 181.625 24.199219 182.960938 C 21.898438 186.042969 18.5 199.191406 17 210.59375 C 16.398438 215.421875 15.5 223.230469 14.898438 228.058594 C 13.800781 236.6875 14.199219 290.414062 15.601562 342.804688 L 16.300781 365.714844 L 11.800781 370.644531 C 6.199219 376.707031 4.699219 379.582031 5.5 382.152344 C 6.398438 385.234375 9 384.617188 13.101562 380.507812 C 16.398438 377.117188 16.898438 377.015625 17.398438 378.761719 C 18.5 382.355469 18.398438 394.890625 17.199219 403.722656 C 14.300781 424.988281 16.601562 439.472656 25.5 455.292969 C 31 465.054688 42.800781 477.792969 50.300781 482.003906 C 58.199219 486.625 79.199219 492.480469 98.5 495.667969 C 104 496.488281 111 497.617188 114 498.234375 C 117 498.746094 122.398438 499.363281 126 499.773438 C 129.601562 500.082031 137.699219 501.007812 144 501.828125 C 174.699219 505.734375 217.699219 506.144531 245 502.855469 C 290.398438 497.308594 296.699219 496.078125 311.101562 490.425781 C 325 484.980469 336.300781 478.40625 344.898438 470.703125 C 349.101562 466.902344 353.300781 463.203125 354.300781 462.382812 C 355.199219 461.457031 356 460.53125 356 460.121094 C 356 459.710938 357.699219 456.421875 359.800781 452.929688 C 366.5 441.628906 371.898438 425.398438 374.5 408.757812 C 377 392.320312 376.800781 350.40625 374 326.164062 C 373.5 321.644531 372.601562 312.398438 371.898438 305.617188 C 371.300781 298.835938 370 288.152344 369 281.992188 C 364.699219 255.898438 362.898438 245.523438 360.898438 235.96875 C 359.699219 230.523438 358.898438 225.796875 359.199219 225.488281 C 360.199219 224.460938 370.601562 222.921875 377.398438 222.820312 C 381.300781 222.820312 386.300781 222.511719 388.5 221.996094 L 392.5 221.277344 L 385 219.429688 C 380.898438 218.402344 373 217.167969 367.5 216.757812 C 362 216.242188 357.101562 215.730469 356.5 215.730469 C 354.101562 215.523438 363.398438 211.519531 371.101562 209.566406 C 378.300781 207.613281 381.300781 207.410156 392 207.820312 C 398.898438 208.128906 405.699219 208.847656 407.300781 209.464844 C 411.398438 211.109375 410.601562 210.082031 404.699219 206.074219 C 397.199219 200.9375 387.800781 196.621094 378.5 194.15625 C 371.601562 192.308594 368.300781 191.792969 357.5 190.972656 C 352 190.5625 372.199219 187.789062 384 187.273438 L 397.5 186.761719 L 400.300781 182.855469 L 403.101562 178.851562 L 398.800781 177.515625 C 393.199219 175.871094 366 175.769531 360 177.414062 C 352.300781 179.46875 349.800781 179.878906 350.398438 178.953125 C 350.699219 178.441406 352 177.71875 353.199219 177.414062 C 354.5 177.207031 360.898438 175.5625 367.5 173.816406 C 374.101562 172.070312 386.5 169.914062 395 168.886719 L 410.5 167.140625 L 422.199219 155.222656 C 428.699219 148.648438 434 143 434 142.585938 C 434 140.945312 416.800781 135.394531 407.601562 134.0625 C 396.601562 132.519531 399.300781 131.699219 416 131.59375 C 440.101562 131.390625 444.898438 130.773438 448.101562 127.488281 C 453 122.351562 478.5 93.277344 478.800781 92.558594 C 479.300781 91.019531 467.398438 81.875 461 78.894531 C 447.199219 72.421875 447.398438 72.730469 457.5 73.347656 C 462.5 73.65625 470.800781 74.992188 476 76.429688 L 485.5 79 L 488.199219 75.710938 C 491.601562 71.808594 499.199219 56.191406 501.898438 47.667969 C 506.5 33.488281 505.601562 19.3125 499.699219 13.664062 C 497.898438 11.917969 495.5 9.964844 494.300781 9.347656 C 490.898438 7.601562 473.5 8.117188 465.300781 10.273438 Z M 222.699219 22.292969 C 227.898438 26.503906 235.5 38.214844 238 45.613281 C 240 51.878906 240.601562 57.527344 239.300781 57.527344 C 238.800781 57.527344 231.800781 57.734375 223.5 58.042969 C 215.300781 58.246094 203.601562 59.171875 197.5 59.992188 C 181.699219 62.253906 180.300781 62.253906 179.699219 58.964844 C 178.300781 51.054688 185.101562 31.847656 191.601562 25.578125 C 198.199219 19.210938 200.398438 18.386719 210.199219 18.800781 C 218.199219 19.109375 219.300781 19.414062 222.699219 22.292969 Z M 454.5 54.242188 C 452.199219 56.296875 443 62.664062 437 66.261719 C 415.601562 79.511719 384.398438 107.453125 365 130.875 C 363.601562 132.519531 360.898438 135.808594 359 138.066406 C 357 140.429688 353.398438 145.054688 351 148.441406 C 348.601562 151.832031 345.898438 155.324219 345.101562 156.148438 C 344.300781 156.96875 342.101562 160.152344 340.199219 163.339844 C 338.199219 166.421875 333 174.332031 328.601562 180.800781 C 324.101562 187.273438 318.5 196.109375 316.101562 200.320312 C 313.601562 204.53125 311.101562 208.746094 310.398438 209.566406 C 308.898438 211.519531 302.898438 222.714844 294.5 239.667969 L 287.898438 252.816406 L 310.300781 252.097656 C 331.300781 251.480469 332.699219 251.480469 333.398438 253.226562 C 333.800781 254.355469 333.398438 255.792969 332.5 256.820312 C 330.898438 258.671875 328.699219 258.980469 308 260.929688 C 296.101562 262.0625 270 266.171875 259.5 268.53125 C 241.101562 272.746094 226.601562 274.492188 216 273.976562 C 204.101562 273.257812 178.398438 269.558594 154 264.9375 C 144.898438 263.191406 132.601562 260.929688 126.5 259.800781 C 114 257.539062 111 256.511719 111 254.253906 C 111 251.582031 115.800781 251.378906 143.5 252.609375 C 179.300781 254.253906 247.398438 255.074219 262.898438 254.046875 L 275.300781 253.226562 L 278 248.089844 C 285.101562 234.835938 290.300781 225.59375 300.699219 208.027344 C 308.5 194.671875 333.699219 159.125 344.800781 145.773438 C 361.898438 124.917969 377.699219 108.996094 396.601562 93.378906 C 411.101562 81.359375 418 76.328125 433.101562 66.980469 C 439.398438 63.074219 446.601562 58.453125 449 56.605469 C 452.800781 53.828125 457 51.980469 454.5 54.242188 Z M 73.699219 197.855469 C 75 198.675781 76.199219 200.421875 76.601562 201.757812 C 77.300781 204.839844 73.101562 239.871094 69.800781 258.363281 C 68.300781 266.683594 67.300781 274.800781 65.5 294.832031 C 64.601562 304.179688 63.300781 315.683594 62.5 320.511719 C 61.699219 325.34375 61 331.199219 61 333.664062 C 61 336.128906 60.601562 340.03125 60.101562 342.394531 C 59.601562 344.757812 58.601562 350.820312 58.101562 355.953125 C 57.5 360.988281 56.300781 370.746094 55.398438 377.527344 C 54.5 385.027344 53.800781 398.277344 53.800781 411.429688 C 53.699219 430.535156 54 434.027344 55.898438 441.628906 C 59.199219 454.371094 61.898438 459.199219 68.5 463.921875 C 71.601562 466.082031 73.699219 468.03125 73.101562 468.238281 C 72.5 468.441406 68.898438 467.722656 65.199219 466.59375 C 61.5 465.359375 56.800781 464.128906 54.699219 463.820312 C 51.398438 463.203125 50.398438 462.175781 46.699219 456.21875 C 34.300781 436.699219 30 423.550781 28.398438 401.359375 L 27.699219 391.394531 L 31.5 391.394531 C 36.300781 391.394531 40.601562 388.726562 42.5 384.511719 C 46.601562 375.679688 48 350.613281 47.800781 293.804688 C 47.398438 221.894531 47.5 220.867188 51.699219 210.59375 C 52.5 208.640625 53.601562 206.074219 54 204.945312 C 56.5 198.265625 57.199219 197.136719 59.199219 196.210938 C 62.101562 195.082031 70.800781 196.007812 73.699219 197.855469 Z M 73.699219 197.855469 "
  />
</svg> 